<svg width="168" height="46" viewBox="0 0 168 46" fill="none" xmlns="http://www.w3.org/2000/svg">
<g clip-path="url(#clip0_1_52)">
<path d="M158.203 22.1866L167.108 45.7656C164.483 45.3902 161.86 44.9207 159.187 44.4989L154.171 31.4686L149.015 43.4219C146.484 43.0001 143.999 42.8581 141.468 42.5306L150.515 21.9054L142.312 0.765625H149.906L154.5 12.5769L159.422 0.765625H167.108L158.203 22.1866ZM136.312 0.765625H129.422V41.6406C131.671 41.7812 134.015 41.874 136.312 42.1552V0.765625ZM123.468 41.171C117.187 40.7492 110.906 40.3752 104.485 40.2332V0.765625H111.514V33.5775C115.547 33.6717 119.577 33.9993 123.468 34.1863V41.171ZM96.9839 16.7498V23.7809H87.3757V39.7651H80.4374V0.765625H100.125V7.79674H87.3757V16.7498H96.9839ZM68.6247 7.79674V40.1405C66.2809 40.1405 63.8908 40.1404 61.5935 40.2332V7.79674H54.3276V0.765625H75.937V7.79674H68.6247ZM46.7341 24.1549C43.6411 24.1549 39.9842 24.1549 37.3593 24.2969V34.7501C41.4843 34.4675 45.6094 34.1399 49.7808 33.9993V40.7492L30.3282 42.2972V0.765625H49.7808V7.79674H37.3593V17.2644C40.0784 17.2644 44.2498 17.1238 46.7341 17.1238V24.1549ZM7.78109 20.2182V44.7801C5.25039 45.0627 2.99948 45.3902 0.609375 45.7656V0.765625H7.31291L16.4529 26.313V0.765625H23.4841V42.8581C20.9998 43.2813 18.4691 43.4219 15.7964 43.7959L7.78109 20.2182Z" fill="#E50914"/>
</g>
<defs>
<clipPath id="clip0_1_52">
<rect width="167" height="45" fill="white" transform="translate(0.359375 0.765625)"/>
</clipPath>
</defs>
</svg>
